HIERARCHY
ROOT Hips
{
	OFFSET 0.00000 0.00000 0.00000
	CHANNELS 6 Xposition Yposition Zposition Zrotation Yrotation Xrotation 
	JOINT LHipJoint
	{
		OFFSET 0 0 0
		CHANNELS 3 Zrotation Yrotation Xrotation
		JOINT LeftHip
		{
			OFFSET 1.36337 -1.57426 1.11036
			CHANNELS 3 Zrotation Yrotation Xrotation
			JOINT LeftKnee
			{
				OFFSET 2.38468 -6.55187 0.00000
				CHANNELS 3 Zrotation Yrotation Xrotation
				JOINT LeftAnkle
				{
					OFFSET 2.37166 -6.51609 0.00000
					CHANNELS 3 Zrotation Yrotation Xrotation
					JOINT LeftToe
					{
						OFFSET 0.29078 -0.79891 2.01393
						CHANNELS 3 Zrotation Yrotation Xrotation
						End Site
						{
							OFFSET 0.00000 -0.00000 1.07924
						}
					}
				}
			}
		}
	}
	JOINT RHipJoint
	{
		OFFSET 0 0 0
		CHANNELS 3 Zrotation Yrotation Xrotation
		JOINT RightHip
		{
			OFFSET -1.36349 -1.57426 1.11036
			CHANNELS 3 Zrotation Yrotation Xrotation
			JOINT RightKnee
			{
				OFFSET -2.29562 -6.30717 0.00000
				CHANNELS 3 Zrotation Yrotation Xrotation
				JOINT RightAnkle
				{
					OFFSET -2.40985 -6.62100 0.00000
					CHANNELS 3 Zrotation Yrotation Xrotation
					JOINT RightToe
					{
						OFFSET -0.23197 -0.63733 1.92232
						CHANNELS 3 Zrotation Yrotation Xrotation
						End Site
						{
							OFFSET -0.00000 -0.00000 1.01562
						}
					}
				}
			}
		}
	}
	JOINT lowerback
	{
		OFFSET 0 0 0
		CHANNELS 3 Zrotation Yrotation Xrotation
		JOINT Chest
		{
			OFFSET -0.08565 2.03602 -0.24562
			CHANNELS 3 Zrotation Yrotation Xrotation
			JOINT Chest2
			{
				OFFSET -0.00036 2.05693 0.00216
				CHANNELS 3 Zrotation Yrotation Xrotation
				JOINT lowerneck
				{
					OFFSET 0 0 0
					CHANNELS 3 Zrotation Yrotation Xrotation
					JOINT Neck
					{
						OFFSET -0.03664 1.69515 0.31789
						CHANNELS 3 Zrotation Yrotation Xrotation
						JOINT Head
						{
							OFFSET 0.00932 1.70181 -0.46013
							CHANNELS 3 Zrotation Yrotation Xrotation
							End Site
							{
								OFFSET 0.01243 1.77620 -0.19377
							}
						}
					}
				}
				JOINT LeftCollar
				{
					OFFSET 0 0 0
					CHANNELS 3 Zrotation Yrotation Xrotation
					JOINT LeftShoulder
					{
						OFFSET 3.74344 0.81315 -0.36647
CHANNELS 3 Zrotation Xrotation Yrotation
						JOINT LeftElbow
						{
OFFSET 0 -4.971850 -0.000000
CHANNELS 3 Zrotation Xrotation Yrotation
							JOINT LeftWrist
							{
OFFSET 0 -3.358110 0.000000
CHANNELS 3 Zrotation Xrotation Yrotation
								JOINT lhand
								{
									OFFSET 0 0 0
CHANNELS 3 Zrotation Xrotation Yrotation
									JOINT LFingers
									{
OFFSET 0 -0.622780 0.000000
CHANNELS 3 Zrotation Xrotation Yrotation
										End Site
										{
OFFSET 0 -0.502100 0.000000
										}
									}
								}
								JOINT LThumb
								{
OFFSET 0 0.000000 0.000000
CHANNELS 3 Zrotation Xrotation Yrotation
									End Site
									{
OFFSET 0 -0.509760 0.509760
									}
								}
							}
						}
					}
				}
				JOINT RightCollar
				{
					OFFSET 0 0 0
					CHANNELS 3 Zrotation Yrotation Xrotation
					JOINT RightShoulder
					{
						OFFSET -3.75385 0.50666 -0.06525
CHANNELS 3 Zrotation Xrotation Yrotation
						JOINT RightElbow
						{
OFFSET 0 -4.964930 -0.000000
CHANNELS 3 Zrotation Xrotation Yrotation
							JOINT RightWrist
							{
OFFSET 0 -3.349290 0.000000
CHANNELS 3 Zrotation Xrotation Yrotation
								JOINT rhand
								{
									OFFSET 0 0 0
CHANNELS 3 Zrotation Xrotation Yrotation
									JOINT RFingers
									{
OFFSET 0 -0.638040 0.000000
CHANNELS 3 Zrotation Xrotation Yrotation
										End Site
										{
OFFSET 0 -0.514410 0.000000
										}
									}
								}
								JOINT RThumb
								{
OFFSET 0 0.000000 0.000000
CHANNELS 3 Zrotation Xrotation Yrotation
									End Site
									{
OFFSET 0 -0.522260 0.522260
									}
								}
							}
						}
					}
				}
			}
		}
	}
}
MOTION
Frames: 11
Frame Time: 0.008333333333333333
-29.488000 16.679600 -2.008900 8.376200 81.433900 41.320700 0.000000 0.000000 0.000000 -16.794500 -10.122700 -40.304000 2.300100 9.465100 27.261200 1.042700 16.136200 -30.970000 0.019900 0.911500 2.505500 0.000000 0.000000 0.000000 6.805900 6.110300 -42.282900 -1.858200 -8.564300 24.441700 -0.183500 -10.754700 -17.807000 -0.004400 -0.426300 1.171500 -5.438900 -0.845800 -38.399200 1.651900 1.441300 -2.187200 5.472800 0.377600 16.540700 1.742500 5.982000 -18.708800 -6.455700 9.484400 19.493900 -1.190900 3.874000 9.676400 0.000000 -0.000000 0.000000 -0.962900 -3.764300 -40.718700 16.290900 -25.913500 3.772200 23.106000 -12.479400 3.967100 0.000000 0.000000 0.000000 -7.125000 0.000000 0.000000 -2.664700 25.667100 -1.248800 0.000000 -0.000000 0.000000 -4.960700 -3.822900 20.338800 -15.804200 -25.254500 -3.562000 -14.098000 2.830300 34.046700 0.000000 0.000000 0.000000 7.125000 0.000000 -0.000000 23.114300 63.387400 -10.597000
-29.452756 16.682634 -2.082415 7.059656 80.737399 39.306236 0.000000 0.000000 0.000000 -17.181687 -9.748679 -39.377487 2.300396 9.465623 27.263046 1.154921 16.019207 -31.568110 0.060332 1.573543 4.328687 0.000000 0.000000 0.000000 6.805451 4.962470 -42.795948 -2.083198 -9.036668 25.910563 -0.229522 -8.836155 -16.172589 -0.046605 1.253930 -3.449437 -4.871001 -0.216655 -37.185081 0.995207 2.058419 -2.742379 4.672885 0.768834 15.365381 2.895331 7.007283 -17.060915 -6.550445 10.679625 19.696602 -1.280067 4.550402 9.568744 0.000000 0.000000 0.000000 0.619036 -2.889199 -42.280274 15.755873 -25.187807 3.541837 20.887687 -12.105586 4.424468 0.000000 0.000000 0.000000 -7.125000 0.000000 0.000000 -4.332544 25.244134 -2.077126 0.000000 0.000000 0.000000 -3.760745 -2.187670 18.661246 -16.075130 -25.622431 -3.678442 -15.364058 3.672871 33.666407 0.000000 0.000000 0.000000 7.125000 0.000000 0.000000 21.356082 63.373792 -9.745260
-29.465938 16.683606 -2.152320 1.974374 80.518516 33.102049 0.000000 0.000000 0.000000 -16.465004 -9.808090 -38.095940 2.335897 9.533154 27.477817 1.301233 16.341660 -32.776095 0.060186 1.576525 4.336832 0.000000 0.000000 0.000000 7.445983 4.335006 -42.247202 -2.191058 -9.253216 26.590588 -0.340793 -6.706419 -15.508707 -0.116448 2.185665 -6.019569 -3.973484 0.070232 -35.800398 1.144523 1.926392 -2.699553 4.286387 0.753489 15.030921 3.869141 8.607953 -15.797914 -7.003044 12.826932 19.672953 -1.319055 5.613452 9.541673 0.000000 0.000000 0.000000 1.248522 -3.264943 -42.104101 15.039744 -24.200081 3.242988 19.280587 -10.708144 4.766005 0.000000 0.000000 0.000000 -7.125000 0.000000 0.000000 -5.531394 24.931595 -2.697199 0.000000 0.000000 0.000000 -3.498509 -2.108510 17.788682 -15.968384 -25.477628 -3.632360 -15.626999 3.710770 31.500215 0.000000 0.000000 0.000000 7.125000 0.000000 0.000000 19.189996 61.426171 -7.852119
-29.483183 16.687309 -2.206063 -3.592548 80.326268 26.625592 0.000000 0.000000 0.000000 -15.482313 -10.043288 -37.018186 2.375557 9.608107 27.716842 1.447363 16.749662 -34.017534 0.059620 1.575794 4.334549 0.000000 0.000000 0.000000 7.749094 4.581437 -40.938939 -2.144389 -9.160565 26.298785 -0.445313 -5.090694 -15.504108 -0.042862 1.336164 -3.674149 -2.787377 0.589607 -34.670378 1.118681 2.061562 -2.627908 3.653999 0.881341 14.691844 5.596834 10.241671 -14.628980 -7.976811 15.048427 19.931531 -1.622948 6.702052 9.774081 0.000000 0.000000 0.000000 1.954659 -3.887923 -41.257542 14.136800 -22.929907 2.881186 18.105798 -8.424944 5.042802 0.000000 0.000000 0.000000 -7.125000 0.000000 0.000000 -6.401914 24.676166 -3.163418 0.000000 0.000000 0.000000 -3.011087 -1.957217 16.540308 -15.906119 -25.393198 -3.605594 -15.397817 2.778553 29.322494 0.000000 0.000000 0.000000 7.125000 0.000000 0.000000 17.766480 59.315558 -6.336071
-29.469241 16.698489 -2.232785 -7.602004 80.613779 22.391446 0.000000 0.000000 0.000000 -14.861727 -9.827994 -36.777079 2.402935 9.659194 27.880140 1.544090 16.090278 -33.968895 0.112782 2.161927 5.953484 0.000000 0.000000 0.000000 7.807201 5.072134 -39.468279 -1.893683 -8.638423 24.672322 -0.497489 -5.643112 -16.583541 -0.029688 1.111872 -3.056771 -1.899451 0.789723 -34.637788 1.211960 1.961610 -2.643788 3.234200 0.888432 14.691812 7.431876 11.916200 -13.236352 -9.219439 17.515241 20.371103 -1.978209 7.893178 10.165785 0.000000 0.000000 0.000000 2.434786 -4.497556 -39.526301 13.280990 -21.696257 2.557066 17.516463 -4.546780 4.707763 0.000000 0.000000 0.000000 -7.125000 0.000000 0.000000 -6.854533 25.041973 -3.331254 0.000000 0.000000 0.000000 -2.886325 -1.403108 15.959943 -16.028108 -25.558675 -3.658062 -14.113977 1.220904 28.759773 0.000000 0.000000 0.000000 7.125000 0.000000 0.000000 18.726210 58.493986 -6.318549
-29.441193 16.710557 -2.239027 -10.049014 81.115971 20.039408 0.000000 0.000000 0.000000 -14.628840 -9.434551 -36.909470 2.417428 9.686286 27.966567 1.493232 15.328850 -32.991476 0.169182 2.647065 7.297749 0.000000 0.000000 0.000000 7.468086 5.888197 -37.644251 -1.518447 -7.774853 22.035652 -0.483795 -8.023317 -18.469273 -0.012140 0.640152 -1.759396 -1.348134 0.820212 -35.030533 1.238848 1.808398 -2.797053 2.907188 0.863493 14.693460 9.296665 13.508687 -11.291268 -10.317030 19.903069 20.440382 -2.318705 9.103982 10.384119 0.000000 0.000000 0.000000 3.020022 -4.962709 -38.590945 12.326291 -20.290996 2.215073 19.839081 -4.440374 5.592314 0.000000 0.000000 0.000000 -7.125000 0.000000 0.000000 -5.120664 24.019827 -2.559913 0.000000 0.000000 0.000000 -2.721067 -0.567010 15.566470 -16.106892 -25.665327 -3.692150 -13.561152 0.390718 28.136683 0.000000 0.000000 0.000000 7.125000 0.000000 0.000000 18.880238 57.782970 -6.050187
-29.406755 16.716793 -2.235619 -11.764921 81.459593 18.155504 0.000000 0.000000 0.000000 -14.341275 -9.528974 -36.551397 2.430977 9.711242 28.046556 1.510219 15.141237 -32.925426 0.183347 2.757649 7.604672 0.000000 0.000000 0.000000 7.028840 6.867767 -35.111105 -1.105099 -6.679042 18.767897 -0.369579 -11.053628 -20.263882 -0.005218 -0.460031 1.264064 -0.820344 0.988129 -35.035625 1.149688 1.848324 -2.964548 2.538856 0.925318 14.512692 10.944246 15.022854 -9.364933 -11.070947 22.202015 20.402093 -2.510494 10.297185 10.563080 0.000000 0.000000 0.000000 3.462303 -5.264762 -35.876273 11.648977 -19.276100 1.984832 22.356522 -5.079102 8.601630 0.000000 0.000000 0.000000 -7.125000 0.000000 0.000000 -3.264303 20.697664 -1.902949 0.000000 0.000000 0.000000 -2.462219 0.405241 15.210501 -16.170702 -25.751503 -3.719801 -14.309839 0.785333 27.818751 0.000000 0.000000 0.000000 7.125000 0.000000 0.000000 17.900653 57.641817 -5.660904
-29.369215 16.711281 -2.207683 -14.837880 81.729922 15.320913 0.000000 0.000000 0.000000 -13.705163 -9.588652 -36.686333 2.452180 9.750475 28.172403 1.584212 14.830724 -33.092083 0.202170 2.894784 7.986069 0.000000 0.000000 0.000000 6.870673 8.204288 -32.965917 -0.751832 -5.528243 15.424082 0.033424 -14.716146 -20.580040 -0.062925 -1.600143 4.402153 -0.087929 1.416404 -35.690609 0.979654 2.160397 -3.029948 2.112135 1.114446 14.709134 12.203562 16.241325 -8.414855 -11.411587 24.135024 21.018366 -2.466513 11.262503 11.071416 0.000000 0.000000 0.000000 4.017740 -5.955155 -32.700165 11.413138 -18.918592 1.907708 20.856519 -4.207692 7.289529 0.000000 0.000000 0.000000 -7.125000 0.000000 0.000000 -4.340154 22.190539 -2.381041 0.000000 0.000000 0.000000 -2.049882 1.204408 14.356364 -16.122709 -25.686713 -3.699024 -15.313710 1.997602 28.073507 0.000000 0.000000 0.000000 7.125000 0.000000 0.000000 17.019954 58.103075 -5.560470
-29.331061 16.698088 -2.149044 -16.555856 82.171446 13.789381 0.000000 0.000000 0.000000 -13.271792 -9.514702 -36.899267 2.490606 9.820770 28.398305 1.612360 14.373906 -32.867026 0.167905 2.635178 7.264952 0.000000 0.000000 0.000000 6.687665 9.720701 -30.668494 -0.480401 -4.434814 12.304925 0.631181 -18.635603 -20.211317 -0.112835 -2.156708 5.939287 0.188636 1.664082 -36.606905 0.824442 2.400686 -2.889162 1.930810 1.235200 15.201066 13.067370 17.168250 -7.177011 -11.753743 25.602025 20.843124 -2.495641 12.027432 11.145770 0.000000 0.000000 0.000000 4.561798 -6.751305 -30.380757 11.285511 -18.724535 1.866523 21.534516 -4.272176 6.195679 0.000000 0.000000 0.000000 -7.125000 0.000000 0.000000 -3.836340 23.327294 -2.010559 0.000000 0.000000 0.000000 -1.679892 1.723432 13.273931 -15.879271 -25.356487 -3.594199 -15.767559 2.729384 28.019363 0.000000 0.000000 0.000000 7.125000 0.000000 0.000000 16.511153 58.149909 -5.408055
-29.303456 16.684762 -2.068736 -18.050878 82.613480 12.502280 0.000000 0.000000 0.000000 -13.006239 -8.918233 -37.413507 2.534371 9.900188 28.653978 1.552048 13.691911 -31.927692 0.100962 2.048725 5.640287 0.000000 0.000000 0.000000 6.465045 11.726935 -28.321951 -0.293169 -3.481201 9.621616 1.030660 -21.753561 -21.867496 -0.199159 -2.873305 7.926224 0.259368 1.931771 -37.272316 0.632476 2.763812 -2.888374 1.864288 1.407228 15.385133 13.910588 17.543226 -6.025279 -12.271638 26.311513 20.564845 -2.723461 12.436843 11.134419 0.000000 0.000000 0.000000 4.989048 -7.466172 -28.149215 11.091274 -18.428019 1.804686 23.607651 -4.019950 5.916730 0.000000 0.000000 0.000000 -7.125000 0.000000 0.000000 -2.301702 23.528036 -1.192402 0.000000 0.000000 0.000000 -1.251955 2.296571 11.824790 -15.454916 -24.775950 -3.414306 -15.686314 3.005522 27.976325 0.000000 0.000000 0.000000 7.125000 0.000000 0.000000 16.568974 58.090699 -5.403908
-29.280863 16.679373 -1.975111 -22.705565 83.057382 8.061512 0.000000 0.000000 0.000000 -11.993714 -9.036867 -37.725763 2.584177 9.989407 28.942477 1.531031 13.732585 -31.833273 0.067911 1.678839 4.619007 0.000000 0.000000 0.000000 8.411860 10.467739 -26.866780 -0.159352 -2.556719 7.047830 0.966184 -21.409735 -21.867561 -0.217954 -3.005203 8.293273 0.738375 2.315642 -37.676012 0.476801 3.099926 -2.983065 1.603582 1.593529 15.447169 14.251181 17.713125 -5.598348 -12.297801 26.632683 20.656340 -2.740071 12.627145 11.191206 0.000000 0.000000 0.000000 5.773944 -8.037931 -27.734614 10.984061 -18.263621 1.771041 25.558741 -6.329036 6.411760 0.000000 0.000000 0.000000 -7.125000 0.000000 0.000000 -0.873430 22.878853 -0.464161 0.000000 0.000000 0.000000 -0.804744 2.498114 10.458871 -14.714503 -23.745957 -3.110663 -15.011085 3.581965 27.799866 0.000000 0.000000 0.000000 7.125000 0.000000 0.000000 17.161281 57.774830 -5.472002
